<?xml version="1.0" encoding="UTF-8" standalone="no"?>
<!DOCTYPE svg PUBLIC "-//W3C//DTD SVG 1.1//EN"
 "http://www.w3.org/Graphics/SVG/1.1/DTD/svg11.dtd">
<!-- Generated by graphviz version 2.47.0 (20210316.0004)
 -->
<!-- Title: dependencies Pages: 1 -->
<svg width="504pt" height="284pt"
 viewBox="0.00 0.00 504.00 284.00" xmlns="http://www.w3.org/2000/svg" xmlns:xlink="http://www.w3.org/1999/xlink">
<g id="graph0" class="graph" transform="scale(1 1) rotate(0) translate(4 280)">
<title>dependencies</title>
<polygon fill="white" stroke="transparent" points="-4,4 -4,-280 500,-280 500,4 -4,4"/>
<text text-anchor="start" x="227.01" y="-42.4" font-family="Times-12" font-weight="bold" font-size="14.00">Legend</text>
<polygon fill="#ffffb3" stroke="transparent" points="14,-10 14,-30 34,-30 34,-10 14,-10"/>
<text text-anchor="start" x="37.63" y="-15.4" font-family="Times-12" font-size="14.00"> &#160;Declarations</text>
<polygon fill="#8dd3c7" stroke="transparent" points="127,-10 127,-30 147,-30 147,-10 127,-10"/>
<text text-anchor="start" x="150.73" y="-15.4" font-family="Times-12" font-size="14.00"> &#160;Module</text>
<polygon fill="#80b1d3" stroke="transparent" points="213,-10 213,-30 233,-30 233,-10 213,-10"/>
<text text-anchor="start" x="236.78" y="-15.4" font-family="Times-12" font-size="14.00"> &#160;Bootstrap</text>
<polygon fill="#fdb462" stroke="transparent" points="310,-10 310,-30 330,-30 330,-10 310,-10"/>
<text text-anchor="start" x="333.67" y="-15.4" font-family="Times-12" font-size="14.00"> &#160;Providers</text>
<polygon fill="#fb8072" stroke="transparent" points="406,-10 406,-30 426,-30 426,-10 406,-10"/>
<text text-anchor="start" x="429.73" y="-15.4" font-family="Times-12" font-size="14.00"> &#160;Exports</text>
<g id="clust1" class="cluster">
<title>cluster_UsersModule</title>
<polygon fill="none" stroke="black" stroke-dasharray="1,5" points="44,-70 44,-268 452,-268 452,-70 44,-70"/>
</g>
<g id="clust3" class="cluster">
<title>cluster_UsersModule_imports</title>
<polygon fill="none" stroke="black" points="200,-78 200,-130 444,-130 444,-78 200,-78"/>
</g>
<g id="clust6" class="cluster">
<title>cluster_UsersModule_providers</title>
<polygon fill="none" stroke="black" points="52,-78 52,-130 192,-130 192,-78 52,-78"/>
</g>
<g id="clust4" class="cluster">
<title>cluster_UsersModule_exports</title>
<polygon fill="none" stroke="black" points="199,-208 199,-260 309,-260 309,-208 199,-208"/>
</g>
<!-- CredentialModule -->
<g id="node1" class="node">
<title>CredentialModule</title>
<polygon fill="#8dd3c7" stroke="black" points="435.86,-122 432.86,-126 411.86,-126 408.86,-122 318.14,-122 318.14,-86 435.86,-86 435.86,-122"/>
<text text-anchor="middle" x="377" y="-99.8" font-family="Times,serif" font-size="14.00">CredentialModule</text>
</g>
<!-- UsersModule -->
<g id="node3" class="node">
<title>UsersModule</title>
<polygon fill="#8dd3c7" stroke="black" points="299.92,-187 296.92,-191 275.92,-191 272.92,-187 208.08,-187 208.08,-151 299.92,-151 299.92,-187"/>
<text text-anchor="middle" x="254" y="-164.8" font-family="Times,serif" font-size="14.00">UsersModule</text>
</g>
<!-- CredentialModule&#45;&gt;UsersModule -->
<g id="edge1" class="edge">
<title>CredentialModule&#45;&gt;UsersModule</title>
<path fill="none" stroke="black" d="M377,-122.11C377,-141.34 377,-169 377,-169 377,-169 309.8,-169 309.8,-169"/>
<polygon fill="black" stroke="black" points="309.8,-165.5 299.8,-169 309.8,-172.5 309.8,-165.5"/>
</g>
<!-- RolesModule -->
<g id="node2" class="node">
<title>RolesModule</title>
<polygon fill="#8dd3c7" stroke="black" points="299.94,-122 296.94,-126 275.94,-126 272.94,-122 208.06,-122 208.06,-86 299.94,-86 299.94,-122"/>
<text text-anchor="middle" x="254" y="-99.8" font-family="Times,serif" font-size="14.00">RolesModule</text>
</g>
<!-- RolesModule&#45;&gt;UsersModule -->
<g id="edge2" class="edge">
<title>RolesModule&#45;&gt;UsersModule</title>
<path fill="none" stroke="black" d="M254,-122.11C254,-122.11 254,-140.99 254,-140.99"/>
<polygon fill="black" stroke="black" points="250.5,-140.99 254,-150.99 257.5,-140.99 250.5,-140.99"/>
</g>
<!-- UsersService  -->
<g id="node4" class="node">
<title>UsersService </title>
<polygon fill="#fb8072" stroke="black" points="300.85,-252 207.15,-252 207.15,-216 300.85,-216 300.85,-252"/>
<text text-anchor="middle" x="254" y="-229.8" font-family="Times,serif" font-size="14.00">UsersService </text>
</g>
<!-- UsersModule&#45;&gt;UsersService  -->
<g id="edge3" class="edge">
<title>UsersModule&#45;&gt;UsersService </title>
<path fill="none" stroke="black" stroke-dasharray="5,2" d="M254,-187.11C254,-187.11 254,-205.99 254,-205.99"/>
<polygon fill="black" stroke="black" points="250.5,-205.99 254,-215.99 257.5,-205.99 250.5,-205.99"/>
</g>
<!-- UsersService -->
<g id="node5" class="node">
<title>UsersService</title>
<ellipse fill="#fdb462" stroke="black" cx="122" cy="-104" rx="61.95" ry="18"/>
<text text-anchor="middle" x="122" y="-99.8" font-family="Times,serif" font-size="14.00">UsersService</text>
</g>
<!-- UsersService&#45;&gt;UsersModule -->
<g id="edge4" class="edge">
<title>UsersService&#45;&gt;UsersModule</title>
<path fill="none" stroke="black" d="M122,-122.11C122,-141.34 122,-169 122,-169 122,-169 198.2,-169 198.2,-169"/>
<polygon fill="black" stroke="black" points="198.2,-172.5 208.2,-169 198.2,-165.5 198.2,-172.5"/>
</g>
</g>
</svg>
