<?xml version="1.0" encoding="UTF-8" standalone="no"?>
<!DOCTYPE svg PUBLIC "-//W3C//DTD SVG 1.1//EN"
 "http://www.w3.org/Graphics/SVG/1.1/DTD/svg11.dtd">
<!-- Generated by graphviz version 2.47.0 (20210316.0004)
 -->
<!-- Title: dependencies Pages: 1 -->
<svg width="809pt" height="284pt"
 viewBox="0.00 0.00 809.00 284.00" xmlns="http://www.w3.org/2000/svg" xmlns:xlink="http://www.w3.org/1999/xlink">
<g id="graph0" class="graph" transform="scale(1 1) rotate(0) translate(4 280)">
<title>dependencies</title>
<polygon fill="white" stroke="transparent" points="-4,4 -4,-280 805,-280 805,4 -4,4"/>
<text text-anchor="start" x="379.51" y="-42.4" font-family="Times-12" font-weight="bold" font-size="14.00">Legend</text>
<polygon fill="#ffffb3" stroke="transparent" points="166.5,-10 166.5,-30 186.5,-30 186.5,-10 166.5,-10"/>
<text text-anchor="start" x="190.13" y="-15.4" font-family="Times-12" font-size="14.00"> &#160;Declarations</text>
<polygon fill="#8dd3c7" stroke="transparent" points="279.5,-10 279.5,-30 299.5,-30 299.5,-10 279.5,-10"/>
<text text-anchor="start" x="303.23" y="-15.4" font-family="Times-12" font-size="14.00"> &#160;Module</text>
<polygon fill="#80b1d3" stroke="transparent" points="365.5,-10 365.5,-30 385.5,-30 385.5,-10 365.5,-10"/>
<text text-anchor="start" x="389.28" y="-15.4" font-family="Times-12" font-size="14.00"> &#160;Bootstrap</text>
<polygon fill="#fdb462" stroke="transparent" points="462.5,-10 462.5,-30 482.5,-30 482.5,-10 462.5,-10"/>
<text text-anchor="start" x="486.17" y="-15.4" font-family="Times-12" font-size="14.00"> &#160;Providers</text>
<polygon fill="#fb8072" stroke="transparent" points="558.5,-10 558.5,-30 578.5,-30 578.5,-10 558.5,-10"/>
<text text-anchor="start" x="582.23" y="-15.4" font-family="Times-12" font-size="14.00"> &#160;Exports</text>
<g id="clust1" class="cluster">
<title>cluster_AuthModule</title>
<polygon fill="none" stroke="black" stroke-dasharray="1,5" points="8,-70 8,-268 793,-268 793,-70 8,-70"/>
</g>
<g id="clust3" class="cluster">
<title>cluster_AuthModule_imports</title>
<polygon fill="none" stroke="black" points="432,-78 432,-130 785,-130 785,-78 432,-78"/>
</g>
<g id="clust4" class="cluster">
<title>cluster_AuthModule_exports</title>
<polygon fill="none" stroke="black" points="368,-208 368,-260 474,-260 474,-208 368,-208"/>
</g>
<g id="clust6" class="cluster">
<title>cluster_AuthModule_providers</title>
<polygon fill="none" stroke="black" points="16,-78 16,-130 424,-130 424,-78 16,-78"/>
</g>
<!-- CredentialModule -->
<g id="node1" class="node">
<title>CredentialModule</title>
<polygon fill="#8dd3c7" stroke="black" points="776.86,-122 773.86,-126 752.86,-126 749.86,-122 659.14,-122 659.14,-86 776.86,-86 776.86,-122"/>
<text text-anchor="middle" x="718" y="-99.8" font-family="Times,serif" font-size="14.00">CredentialModule</text>
</g>
<!-- AuthModule -->
<g id="node4" class="node">
<title>AuthModule</title>
<polygon fill="#8dd3c7" stroke="black" points="464.55,-187 461.55,-191 440.55,-191 437.55,-187 377.45,-187 377.45,-151 464.55,-151 464.55,-187"/>
<text text-anchor="middle" x="421" y="-164.8" font-family="Times,serif" font-size="14.00">AuthModule</text>
</g>
<!-- CredentialModule&#45;&gt;AuthModule -->
<g id="edge1" class="edge">
<title>CredentialModule&#45;&gt;AuthModule</title>
<path fill="none" stroke="black" d="M718,-122.28C718,-143.32 718,-175 718,-175 718,-175 474.82,-175 474.82,-175"/>
<polygon fill="black" stroke="black" points="474.82,-171.5 464.82,-175 474.82,-178.5 474.82,-171.5"/>
</g>
<!-- RolesModule -->
<g id="node2" class="node">
<title>RolesModule</title>
<polygon fill="#8dd3c7" stroke="black" points="640.94,-122 637.94,-126 616.94,-126 613.94,-122 549.06,-122 549.06,-86 640.94,-86 640.94,-122"/>
<text text-anchor="middle" x="595" y="-99.8" font-family="Times,serif" font-size="14.00">RolesModule</text>
</g>
<!-- RolesModule&#45;&gt;AuthModule -->
<g id="edge2" class="edge">
<title>RolesModule&#45;&gt;AuthModule</title>
<path fill="none" stroke="black" d="M595,-122.02C595,-139.37 595,-163 595,-163 595,-163 474.91,-163 474.91,-163"/>
<polygon fill="black" stroke="black" points="474.91,-159.5 464.91,-163 474.91,-166.5 474.91,-159.5"/>
</g>
<!-- UsersModule -->
<g id="node3" class="node">
<title>UsersModule</title>
<polygon fill="#8dd3c7" stroke="black" points="531.92,-122 528.92,-126 507.92,-126 504.92,-122 440.08,-122 440.08,-86 531.92,-86 531.92,-122"/>
<text text-anchor="middle" x="486" y="-99.8" font-family="Times,serif" font-size="14.00">UsersModule</text>
</g>
<!-- UsersModule&#45;&gt;AuthModule -->
<g id="edge3" class="edge">
<title>UsersModule&#45;&gt;AuthModule</title>
<path fill="none" stroke="black" d="M452.53,-122.11C452.53,-122.11 452.53,-140.99 452.53,-140.99"/>
<polygon fill="black" stroke="black" points="449.03,-140.99 452.53,-150.99 456.03,-140.99 449.03,-140.99"/>
</g>
<!-- AuthService  -->
<g id="node5" class="node">
<title>AuthService </title>
<polygon fill="#fb8072" stroke="black" points="465.98,-252 376.02,-252 376.02,-216 465.98,-216 465.98,-252"/>
<text text-anchor="middle" x="421" y="-229.8" font-family="Times,serif" font-size="14.00">AuthService </text>
</g>
<!-- AuthModule&#45;&gt;AuthService  -->
<g id="edge4" class="edge">
<title>AuthModule&#45;&gt;AuthService </title>
<path fill="none" stroke="black" stroke-dasharray="5,2" d="M421,-187.11C421,-187.11 421,-205.99 421,-205.99"/>
<polygon fill="black" stroke="black" points="417.5,-205.99 421,-215.99 424.5,-205.99 417.5,-205.99"/>
</g>
<!-- AuthService -->
<g id="node6" class="node">
<title>AuthService</title>
<ellipse fill="#fdb462" stroke="black" cx="357" cy="-104" rx="59.11" ry="18"/>
<text text-anchor="middle" x="357" y="-99.8" font-family="Times,serif" font-size="14.00">AuthService</text>
</g>
<!-- AuthService&#45;&gt;AuthModule -->
<g id="edge5" class="edge">
<title>AuthService&#45;&gt;AuthModule</title>
<path fill="none" stroke="black" d="M396.77,-117.47C396.77,-117.47 396.77,-140.86 396.77,-140.86"/>
<polygon fill="black" stroke="black" points="393.27,-140.86 396.77,-150.86 400.27,-140.86 393.27,-140.86"/>
</g>
<!-- JwtStrategy -->
<g id="node7" class="node">
<title>JwtStrategy</title>
<ellipse fill="#fdb462" stroke="black" cx="223" cy="-104" rx="56.76" ry="18"/>
<text text-anchor="middle" x="223" y="-99.8" font-family="Times,serif" font-size="14.00">JwtStrategy</text>
</g>
<!-- JwtStrategy&#45;&gt;AuthModule -->
<g id="edge6" class="edge">
<title>JwtStrategy&#45;&gt;AuthModule</title>
<path fill="none" stroke="black" d="M223,-122.02C223,-139.37 223,-163 223,-163 223,-163 367.06,-163 367.06,-163"/>
<polygon fill="black" stroke="black" points="367.06,-166.5 377.06,-163 367.06,-159.5 367.06,-166.5"/>
</g>
<!-- UsersService -->
<g id="node8" class="node">
<title>UsersService</title>
<ellipse fill="#fdb462" stroke="black" cx="86" cy="-104" rx="61.95" ry="18"/>
<text text-anchor="middle" x="86" y="-99.8" font-family="Times,serif" font-size="14.00">UsersService</text>
</g>
<!-- UsersService&#45;&gt;AuthModule -->
<g id="edge7" class="edge">
<title>UsersService&#45;&gt;AuthModule</title>
<path fill="none" stroke="black" d="M86,-122.28C86,-143.32 86,-175 86,-175 86,-175 367.2,-175 367.2,-175"/>
<polygon fill="black" stroke="black" points="367.2,-178.5 377.2,-175 367.2,-171.5 367.2,-178.5"/>
</g>
</g>
</svg>
