<?xml version="1.0" encoding="UTF-8" standalone="no"?>
<!DOCTYPE svg PUBLIC "-//W3C//DTD SVG 1.1//EN"
 "http://www.w3.org/Graphics/SVG/1.1/DTD/svg11.dtd">
<!-- Generated by graphviz version 2.47.0 (20210316.0004)
 -->
<!-- Title: dependencies Pages: 1 -->
<svg width="743pt" height="211pt"
 viewBox="0.00 0.00 743.00 211.00" xmlns="http://www.w3.org/2000/svg" xmlns:xlink="http://www.w3.org/1999/xlink">
<g id="graph0" class="graph" transform="scale(1 1) rotate(0) translate(4 207)">
<title>dependencies</title>
<polygon fill="white" stroke="transparent" points="-4,4 -4,-207 739,-207 739,4 -4,4"/>
<text text-anchor="start" x="346.51" y="-42.4" font-family="Times-12" font-weight="bold" font-size="14.00">Legend</text>
<polygon fill="#ffffb3" stroke="transparent" points="133.5,-10 133.5,-30 153.5,-30 153.5,-10 133.5,-10"/>
<text text-anchor="start" x="157.13" y="-15.4" font-family="Times-12" font-size="14.00"> &#160;Declarations</text>
<polygon fill="#8dd3c7" stroke="transparent" points="246.5,-10 246.5,-30 266.5,-30 266.5,-10 246.5,-10"/>
<text text-anchor="start" x="270.23" y="-15.4" font-family="Times-12" font-size="14.00"> &#160;Module</text>
<polygon fill="#80b1d3" stroke="transparent" points="332.5,-10 332.5,-30 352.5,-30 352.5,-10 332.5,-10"/>
<text text-anchor="start" x="356.28" y="-15.4" font-family="Times-12" font-size="14.00"> &#160;Bootstrap</text>
<polygon fill="#fdb462" stroke="transparent" points="429.5,-10 429.5,-30 449.5,-30 449.5,-10 429.5,-10"/>
<text text-anchor="start" x="453.17" y="-15.4" font-family="Times-12" font-size="14.00"> &#160;Providers</text>
<polygon fill="#fb8072" stroke="transparent" points="525.5,-10 525.5,-30 545.5,-30 545.5,-10 525.5,-10"/>
<text text-anchor="start" x="549.23" y="-15.4" font-family="Times-12" font-size="14.00"> &#160;Exports</text>
<g id="clust1" class="cluster">
<title>cluster_AppModule</title>
<polygon fill="none" stroke="black" stroke-dasharray="1,5" points="8,-70 8,-195 727,-195 727,-70 8,-70"/>
</g>
<g id="clust3" class="cluster">
<title>cluster_AppModule_imports</title>
<polygon fill="none" stroke="black" points="16,-78 16,-130 719,-130 719,-78 16,-78"/>
</g>
<!-- AuthModule -->
<g id="node1" class="node">
<title>AuthModule</title>
<polygon fill="#8dd3c7" stroke="black" points="710.55,-122 707.55,-126 686.55,-126 683.55,-122 623.45,-122 623.45,-86 710.55,-86 710.55,-122"/>
<text text-anchor="middle" x="667" y="-99.8" font-family="Times,serif" font-size="14.00">AuthModule</text>
</g>
<!-- AppModule -->
<g id="node7" class="node">
<title>AppModule</title>
<polygon fill="#8dd3c7" stroke="black" points="394.66,-187 391.66,-191 370.66,-191 367.66,-187 311.34,-187 311.34,-151 394.66,-151 394.66,-187"/>
<text text-anchor="middle" x="353" y="-164.8" font-family="Times,serif" font-size="14.00">AppModule</text>
</g>
<!-- AuthModule&#45;&gt;AppModule -->
<g id="edge1" class="edge">
<title>AuthModule&#45;&gt;AppModule</title>
<path fill="none" stroke="black" d="M667,-122.28C667,-143.32 667,-175 667,-175 667,-175 404.7,-175 404.7,-175"/>
<polygon fill="black" stroke="black" points="404.7,-171.5 394.7,-175 404.7,-178.5 404.7,-171.5"/>
</g>
<!-- CredentialModule -->
<g id="node2" class="node">
<title>CredentialModule</title>
<polygon fill="#8dd3c7" stroke="black" points="604.86,-122 601.86,-126 580.86,-126 577.86,-122 487.14,-122 487.14,-86 604.86,-86 604.86,-122"/>
<text text-anchor="middle" x="546" y="-99.8" font-family="Times,serif" font-size="14.00">CredentialModule</text>
</g>
<!-- CredentialModule&#45;&gt;AppModule -->
<g id="edge2" class="edge">
<title>CredentialModule&#45;&gt;AppModule</title>
<path fill="none" stroke="black" d="M546,-122.02C546,-139.37 546,-163 546,-163 546,-163 404.88,-163 404.88,-163"/>
<polygon fill="black" stroke="black" points="404.88,-159.5 394.88,-163 404.88,-166.5 404.88,-159.5"/>
</g>
<!-- DatabaseModule -->
<g id="node3" class="node">
<title>DatabaseModule</title>
<polygon fill="#8dd3c7" stroke="black" points="469.35,-122 466.35,-126 445.35,-126 442.35,-122 358.65,-122 358.65,-86 469.35,-86 469.35,-122"/>
<text text-anchor="middle" x="414" y="-99.8" font-family="Times,serif" font-size="14.00">DatabaseModule</text>
</g>
<!-- DatabaseModule&#45;&gt;AppModule -->
<g id="edge3" class="edge">
<title>DatabaseModule&#45;&gt;AppModule</title>
<path fill="none" stroke="black" d="M376.7,-122.11C376.7,-122.11 376.7,-140.99 376.7,-140.99"/>
<polygon fill="black" stroke="black" points="373.2,-140.99 376.7,-150.99 380.2,-140.99 373.2,-140.99"/>
</g>
<!-- ProfileModule -->
<g id="node4" class="node">
<title>ProfileModule</title>
<polygon fill="#8dd3c7" stroke="black" points="340.65,-122 337.65,-126 316.65,-126 313.65,-122 243.35,-122 243.35,-86 340.65,-86 340.65,-122"/>
<text text-anchor="middle" x="292" y="-99.8" font-family="Times,serif" font-size="14.00">ProfileModule</text>
</g>
<!-- ProfileModule&#45;&gt;AppModule -->
<g id="edge4" class="edge">
<title>ProfileModule&#45;&gt;AppModule</title>
<path fill="none" stroke="black" d="M326,-122.11C326,-122.11 326,-140.99 326,-140.99"/>
<polygon fill="black" stroke="black" points="322.5,-140.99 326,-150.99 329.5,-140.99 322.5,-140.99"/>
</g>
<!-- RolesModule -->
<g id="node5" class="node">
<title>RolesModule</title>
<polygon fill="#8dd3c7" stroke="black" points="224.94,-122 221.94,-126 200.94,-126 197.94,-122 133.06,-122 133.06,-86 224.94,-86 224.94,-122"/>
<text text-anchor="middle" x="179" y="-99.8" font-family="Times,serif" font-size="14.00">RolesModule</text>
</g>
<!-- RolesModule&#45;&gt;AppModule -->
<g id="edge5" class="edge">
<title>RolesModule&#45;&gt;AppModule</title>
<path fill="none" stroke="black" d="M179,-122.02C179,-139.37 179,-163 179,-163 179,-163 301.32,-163 301.32,-163"/>
<polygon fill="black" stroke="black" points="301.32,-166.5 311.32,-163 301.32,-159.5 301.32,-166.5"/>
</g>
<!-- UsersModule -->
<g id="node6" class="node">
<title>UsersModule</title>
<polygon fill="#8dd3c7" stroke="black" points="115.92,-122 112.92,-126 91.92,-126 88.92,-122 24.08,-122 24.08,-86 115.92,-86 115.92,-122"/>
<text text-anchor="middle" x="70" y="-99.8" font-family="Times,serif" font-size="14.00">UsersModule</text>
</g>
<!-- UsersModule&#45;&gt;AppModule -->
<g id="edge6" class="edge">
<title>UsersModule&#45;&gt;AppModule</title>
<path fill="none" stroke="black" d="M70,-122.28C70,-143.32 70,-175 70,-175 70,-175 301.24,-175 301.24,-175"/>
<polygon fill="black" stroke="black" points="301.24,-178.5 311.24,-175 301.24,-171.5 301.24,-178.5"/>
</g>
</g>
</svg>
