<?xml version="1.0" encoding="UTF-8" standalone="no"?>
<!DOCTYPE svg PUBLIC "-//W3C//DTD SVG 1.1//EN"
 "http://www.w3.org/Graphics/SVG/1.1/DTD/svg11.dtd">
<!-- Generated by graphviz version 2.47.0 (20210316.0004)
 -->
<!-- Title: dependencies Pages: 1 -->
<svg width="1890pt" height="352pt"
 viewBox="0.00 0.00 1890.00 352.00" xmlns="http://www.w3.org/2000/svg" xmlns:xlink="http://www.w3.org/1999/xlink">
<g id="graph0" class="graph" transform="scale(1 1) rotate(0) translate(4 348)">
<title>dependencies</title>
<polygon fill="white" stroke="transparent" points="-4,4 -4,-348 1886,-348 1886,4 -4,4"/>
<text text-anchor="start" x="920.01" y="-42.4" font-family="Times-12" font-weight="bold" font-size="14.00">Legend</text>
<polygon fill="#ffffb3" stroke="transparent" points="707,-10 707,-30 727,-30 727,-10 707,-10"/>
<text text-anchor="start" x="730.63" y="-15.4" font-family="Times-12" font-size="14.00"> &#160;Declarations</text>
<polygon fill="#8dd3c7" stroke="transparent" points="820,-10 820,-30 840,-30 840,-10 820,-10"/>
<text text-anchor="start" x="843.73" y="-15.4" font-family="Times-12" font-size="14.00"> &#160;Module</text>
<polygon fill="#80b1d3" stroke="transparent" points="906,-10 906,-30 926,-30 926,-10 906,-10"/>
<text text-anchor="start" x="929.78" y="-15.4" font-family="Times-12" font-size="14.00"> &#160;Bootstrap</text>
<polygon fill="#fdb462" stroke="transparent" points="1003,-10 1003,-30 1023,-30 1023,-10 1003,-10"/>
<text text-anchor="start" x="1026.67" y="-15.4" font-family="Times-12" font-size="14.00"> &#160;Providers</text>
<polygon fill="#fb8072" stroke="transparent" points="1099,-10 1099,-30 1119,-30 1119,-10 1099,-10"/>
<text text-anchor="start" x="1122.73" y="-15.4" font-family="Times-12" font-size="14.00"> &#160;Exports</text>
<g id="clust1" class="cluster">
<title>cluster_AppModule</title>
<polygon fill="none" stroke="black" stroke-dasharray="1,5" points="142,-70 142,-336 530,-336 530,-70 142,-70"/>
</g>
<g id="clust3" class="cluster">
<title>cluster_AppModule_imports</title>
<polygon fill="none" stroke="black" points="150,-78 150,-271 522,-271 522,-78 150,-78"/>
</g>
<g id="clust7" class="cluster">
<title>cluster_AuthModule</title>
<polygon fill="none" stroke="black" stroke-dasharray="1,5" points="1164,-135 1164,-203 1702,-203 1702,-135 1164,-135"/>
</g>
<g id="clust10" class="cluster">
<title>cluster_AuthModule_exports</title>
<polygon fill="none" stroke="black" points="1588,-143 1588,-195 1694,-195 1694,-143 1588,-143"/>
</g>
<g id="clust12" class="cluster">
<title>cluster_AuthModule_providers</title>
<polygon fill="none" stroke="black" points="1172,-143 1172,-195 1580,-195 1580,-143 1172,-143"/>
</g>
<g id="clust13" class="cluster">
<title>cluster_CredentialModule</title>
<polygon fill="none" stroke="black" stroke-dasharray="1,5" points="538,-135 538,-203 874,-203 874,-135 538,-135"/>
</g>
<g id="clust16" class="cluster">
<title>cluster_CredentialModule_exports</title>
<polygon fill="none" stroke="black" points="730,-143 730,-195 866,-195 866,-143 730,-143"/>
</g>
<g id="clust18" class="cluster">
<title>cluster_CredentialModule_providers</title>
<polygon fill="none" stroke="black" points="546,-143 546,-195 722,-195 722,-143 546,-143"/>
</g>
<g id="clust25" class="cluster">
<title>cluster_ProfileModule</title>
<polygon fill="none" stroke="black" stroke-dasharray="1,5" points="1710,-135 1710,-203 1874,-203 1874,-135 1710,-135"/>
</g>
<g id="clust30" class="cluster">
<title>cluster_ProfileModule_providers</title>
<polygon fill="none" stroke="black" points="1718,-143 1718,-195 1866,-195 1866,-143 1718,-143"/>
</g>
<g id="clust31" class="cluster">
<title>cluster_RolesModule</title>
<polygon fill="none" stroke="black" stroke-dasharray="1,5" points="882,-135 882,-203 1156,-203 1156,-135 882,-135"/>
</g>
<g id="clust34" class="cluster">
<title>cluster_RolesModule_exports</title>
<polygon fill="none" stroke="black" points="1038,-143 1038,-195 1148,-195 1148,-143 1038,-143"/>
</g>
<g id="clust36" class="cluster">
<title>cluster_RolesModule_providers</title>
<polygon fill="none" stroke="black" points="890,-143 890,-195 1030,-195 1030,-143 890,-143"/>
</g>
<g id="clust37" class="cluster">
<title>cluster_UsersModule</title>
<polygon fill="none" stroke="black" stroke-dasharray="1,5" points="8,-211 8,-279 134,-279 134,-211 8,-211"/>
</g>
<g id="clust40" class="cluster">
<title>cluster_UsersModule_exports</title>
<polygon fill="none" stroke="black" points="16,-219 16,-271 126,-271 126,-219 16,-219"/>
</g>
<!-- AuthModule -->
<g id="node1" class="node">
<title>AuthModule</title>
<polygon fill="#8dd3c7" stroke="black" points="397.55,-263 394.55,-267 373.55,-267 370.55,-263 310.45,-263 310.45,-227 397.55,-227 397.55,-263"/>
<text text-anchor="middle" x="354" y="-240.8" font-family="Times,serif" font-size="14.00">AuthModule</text>
</g>
<!-- AppModule -->
<g id="node7" class="node">
<title>AppModule</title>
<polygon fill="#8dd3c7" stroke="black" points="322.66,-328 319.66,-332 298.66,-332 295.66,-328 239.34,-328 239.34,-292 322.66,-292 322.66,-328"/>
<text text-anchor="middle" x="281" y="-305.8" font-family="Times,serif" font-size="14.00">AppModule</text>
</g>
<!-- AuthModule&#45;&gt;AppModule -->
<g id="edge1" class="edge">
<title>AuthModule&#45;&gt;AppModule</title>
<path fill="none" stroke="black" d="M316.53,-263.11C316.53,-263.11 316.53,-281.99 316.53,-281.99"/>
<polygon fill="black" stroke="black" points="313.03,-281.99 316.53,-291.99 320.03,-281.99 313.03,-281.99"/>
</g>
<!-- AuthService  -->
<g id="node8" class="node">
<title>AuthService </title>
<polygon fill="#fb8072" stroke="black" points="1685.98,-187 1596.02,-187 1596.02,-151 1685.98,-151 1685.98,-187"/>
<text text-anchor="middle" x="1641" y="-164.8" font-family="Times,serif" font-size="14.00">AuthService </text>
</g>
<!-- AuthModule&#45;&gt;AuthService  -->
<g id="edge10" class="edge">
<title>AuthModule&#45;&gt;AuthService </title>
<path fill="none" stroke="black" stroke-dasharray="5,2" d="M350.47,-226.94C350.47,-215.56 350.47,-203 350.47,-203 350.47,-203 1641,-203 1641,-203 1641,-203 1641,-197.19 1641,-197.19"/>
<polygon fill="black" stroke="black" points="1644.5,-197.19 1641,-187.19 1637.5,-197.19 1644.5,-197.19"/>
</g>
<!-- CredentialModule -->
<g id="node2" class="node">
<title>CredentialModule</title>
<polygon fill="#8dd3c7" stroke="black" points="403.86,-122 400.86,-126 379.86,-126 376.86,-122 286.14,-122 286.14,-86 403.86,-86 403.86,-122"/>
<text text-anchor="middle" x="345" y="-99.8" font-family="Times,serif" font-size="14.00">CredentialModule</text>
</g>
<!-- CredentialModule&#45;&gt;AuthModule -->
<g id="edge7" class="edge">
<title>CredentialModule&#45;&gt;AuthModule</title>
<path fill="none" stroke="black" d="M393.54,-122.14C393.54,-122.14 393.54,-216.93 393.54,-216.93"/>
<polygon fill="black" stroke="black" points="390.04,-216.92 393.54,-226.93 397.04,-216.93 390.04,-216.92"/>
</g>
<!-- UsersModule -->
<g id="node6" class="node">
<title>UsersModule</title>
<polygon fill="#8dd3c7" stroke="black" points="390.92,-187 387.92,-191 366.92,-191 363.92,-187 299.08,-187 299.08,-151 390.92,-151 390.92,-187"/>
<text text-anchor="middle" x="345" y="-164.8" font-family="Times,serif" font-size="14.00">UsersModule</text>
</g>
<!-- CredentialModule&#45;&gt;UsersModule -->
<g id="edge20" class="edge">
<title>CredentialModule&#45;&gt;UsersModule</title>
<path fill="none" stroke="black" d="M329.76,-122.11C329.76,-122.11 329.76,-140.99 329.76,-140.99"/>
<polygon fill="black" stroke="black" points="326.26,-140.99 329.76,-150.99 333.26,-140.99 326.26,-140.99"/>
</g>
<!-- CredentialModule&#45;&gt;AppModule -->
<g id="edge2" class="edge">
<title>CredentialModule&#45;&gt;AppModule</title>
<path fill="none" stroke="black" d="M292.68,-122.28C292.68,-122.28 292.68,-281.76 292.68,-281.76"/>
<polygon fill="black" stroke="black" points="289.18,-281.76 292.68,-291.76 296.18,-281.76 289.18,-281.76"/>
</g>
<!-- CredentialService  -->
<g id="node12" class="node">
<title>CredentialService </title>
<polygon fill="#fb8072" stroke="black" points="857.79,-187 738.21,-187 738.21,-151 857.79,-151 857.79,-187"/>
<text text-anchor="middle" x="798" y="-164.8" font-family="Times,serif" font-size="14.00">CredentialService </text>
</g>
<!-- CredentialModule&#45;&gt;CredentialService  -->
<g id="edge14" class="edge">
<title>CredentialModule&#45;&gt;CredentialService </title>
<path fill="none" stroke="black" stroke-dasharray="5,2" d="M392.12,-122.11C392.12,-131.9 392.12,-142 392.12,-142 392.12,-142 798,-142 798,-142 798,-142 798,-142.88 798,-142.88"/>
<polygon fill="black" stroke="black" points="794.5,-140.84 798,-150.84 801.5,-140.84 794.5,-140.84"/>
</g>
<!-- DatabaseModule -->
<g id="node3" class="node">
<title>DatabaseModule</title>
<polygon fill="#8dd3c7" stroke="black" points="268.35,-122 265.35,-126 244.35,-126 241.35,-122 157.65,-122 157.65,-86 268.35,-86 268.35,-122"/>
<text text-anchor="middle" x="213" y="-99.8" font-family="Times,serif" font-size="14.00">DatabaseModule</text>
</g>
<!-- DatabaseModule&#45;&gt;AppModule -->
<g id="edge3" class="edge">
<title>DatabaseModule&#45;&gt;AppModule</title>
<path fill="none" stroke="black" d="M253.8,-122.28C253.8,-122.28 253.8,-281.76 253.8,-281.76"/>
<polygon fill="black" stroke="black" points="250.3,-281.76 253.8,-291.76 257.3,-281.76 250.3,-281.76"/>
</g>
<!-- ProfileModule -->
<g id="node4" class="node">
<title>ProfileModule</title>
<polygon fill="#8dd3c7" stroke="black" points="513.65,-263 510.65,-267 489.65,-267 486.65,-263 416.35,-263 416.35,-227 513.65,-227 513.65,-263"/>
<text text-anchor="middle" x="465" y="-240.8" font-family="Times,serif" font-size="14.00">ProfileModule</text>
</g>
<!-- ProfileModule&#45;&gt;AppModule -->
<g id="edge4" class="edge">
<title>ProfileModule&#45;&gt;AppModule</title>
<path fill="none" stroke="black" d="M465,-263.28C465,-284.32 465,-316 465,-316 465,-316 332.75,-316 332.75,-316"/>
<polygon fill="black" stroke="black" points="332.75,-312.5 322.75,-316 332.75,-319.5 332.75,-312.5"/>
</g>
<!-- RolesModule -->
<g id="node5" class="node">
<title>RolesModule</title>
<polygon fill="#8dd3c7" stroke="black" points="513.94,-122 510.94,-126 489.94,-126 486.94,-122 422.06,-122 422.06,-86 513.94,-86 513.94,-122"/>
<text text-anchor="middle" x="468" y="-99.8" font-family="Times,serif" font-size="14.00">RolesModule</text>
</g>
<!-- RolesModule&#45;&gt;AuthModule -->
<g id="edge8" class="edge">
<title>RolesModule&#45;&gt;AuthModule</title>
<path fill="none" stroke="black" d="M422.07,-95C413.41,-95 406.99,-95 406.99,-95 406.99,-95 406.99,-245 406.99,-245 406.99,-245 406.07,-245 406.07,-245"/>
<polygon fill="black" stroke="black" points="407.76,-241.5 397.76,-245 407.76,-248.5 407.76,-241.5"/>
</g>
<!-- RolesModule&#45;&gt;UsersModule -->
<g id="edge21" class="edge">
<title>RolesModule&#45;&gt;UsersModule</title>
<path fill="none" stroke="black" d="M483.24,-122.11C483.24,-141.34 483.24,-169 483.24,-169 483.24,-169 401.03,-169 401.03,-169"/>
<polygon fill="black" stroke="black" points="401.03,-165.5 391.03,-169 401.03,-172.5 401.03,-165.5"/>
</g>
<!-- RolesModule&#45;&gt;AppModule -->
<g id="edge5" class="edge">
<title>RolesModule&#45;&gt;AppModule</title>
<path fill="none" stroke="black" d="M422.06,-104C415.03,-104 410.05,-104 410.05,-104 410.05,-104 410.05,-304 410.05,-304 410.05,-304 332.9,-304 332.9,-304"/>
<polygon fill="black" stroke="black" points="332.9,-300.5 322.9,-304 332.9,-307.5 332.9,-300.5"/>
</g>
<!-- RolesService  -->
<g id="node15" class="node">
<title>RolesService </title>
<polygon fill="#fb8072" stroke="black" points="1139.86,-187 1046.14,-187 1046.14,-151 1139.86,-151 1139.86,-187"/>
<text text-anchor="middle" x="1093" y="-164.8" font-family="Times,serif" font-size="14.00">RolesService </text>
</g>
<!-- RolesModule&#45;&gt;RolesService  -->
<g id="edge18" class="edge">
<title>RolesModule&#45;&gt;RolesService </title>
<path fill="none" stroke="black" stroke-dasharray="5,2" d="M513.96,-98C658.29,-98 1093,-98 1093,-98 1093,-98 1093,-140.72 1093,-140.72"/>
<polygon fill="black" stroke="black" points="1089.5,-140.72 1093,-150.72 1096.5,-140.72 1089.5,-140.72"/>
</g>
<!-- UsersModule&#45;&gt;AuthModule -->
<g id="edge9" class="edge">
<title>UsersModule&#45;&gt;AuthModule</title>
<path fill="none" stroke="black" d="M330.35,-187.01C330.35,-187.01 330.35,-216.85 330.35,-216.85"/>
<polygon fill="black" stroke="black" points="326.85,-216.85 330.35,-226.85 333.85,-216.85 326.85,-216.85"/>
</g>
<!-- UsersModule&#45;&gt;ProfileModule -->
<g id="edge16" class="edge">
<title>UsersModule&#45;&gt;ProfileModule</title>
<path fill="none" stroke="black" d="M391.01,-178C420.3,-178 452.76,-178 452.76,-178 452.76,-178 452.76,-216.69 452.76,-216.69"/>
<polygon fill="black" stroke="black" points="449.26,-216.69 452.76,-226.69 456.26,-216.69 449.26,-216.69"/>
</g>
<!-- UsersModule&#45;&gt;AppModule -->
<g id="edge6" class="edge">
<title>UsersModule&#45;&gt;AppModule</title>
<path fill="none" stroke="black" d="M306.58,-187.14C306.58,-187.14 306.58,-281.93 306.58,-281.93"/>
<polygon fill="black" stroke="black" points="303.08,-281.92 306.58,-291.93 310.08,-281.93 303.08,-281.92"/>
</g>
<!-- UsersService  -->
<g id="node17" class="node">
<title>UsersService </title>
<polygon fill="#fb8072" stroke="black" points="117.85,-263 24.15,-263 24.15,-227 117.85,-227 117.85,-263"/>
<text text-anchor="middle" x="71" y="-240.8" font-family="Times,serif" font-size="14.00">UsersService </text>
</g>
<!-- UsersModule&#45;&gt;UsersService  -->
<g id="edge22" class="edge">
<title>UsersModule&#45;&gt;UsersService </title>
<path fill="none" stroke="black" stroke-dasharray="5,2" d="M302.94,-187.01C302.94,-209.49 302.94,-245 302.94,-245 302.94,-245 127.94,-245 127.94,-245"/>
<polygon fill="black" stroke="black" points="127.94,-241.5 117.94,-245 127.94,-248.5 127.94,-241.5"/>
</g>
<!-- AuthService -->
<g id="node9" class="node">
<title>AuthService</title>
<ellipse fill="#fdb462" stroke="black" cx="1513" cy="-169" rx="59.11" ry="18"/>
<text text-anchor="middle" x="1513" y="-164.8" font-family="Times,serif" font-size="14.00">AuthService</text>
</g>
<!-- AuthService&#45;&gt;AuthModule -->
<g id="edge11" class="edge">
<title>AuthService&#45;&gt;AuthModule</title>
<path fill="none" stroke="black" d="M1513,-187.06C1513,-191.49 1513,-195 1513,-195 1513,-195 370.59,-195 370.59,-195 370.59,-195 370.59,-216.95 370.59,-216.95"/>
<polygon fill="black" stroke="black" points="367.09,-216.95 370.59,-226.95 374.09,-216.95 367.09,-216.95"/>
</g>
<!-- JwtStrategy -->
<g id="node10" class="node">
<title>JwtStrategy</title>
<ellipse fill="#fdb462" stroke="black" cx="1379" cy="-169" rx="56.76" ry="18"/>
<text text-anchor="middle" x="1379" y="-164.8" font-family="Times,serif" font-size="14.00">JwtStrategy</text>
</g>
<!-- JwtStrategy&#45;&gt;AuthModule -->
<g id="edge12" class="edge">
<title>JwtStrategy&#45;&gt;AuthModule</title>
<path fill="none" stroke="black" d="M1379,-187.05C1379,-201.37 1379,-219 1379,-219 1379,-219 396.36,-219 396.36,-219 396.36,-219 396.36,-219.79 396.36,-219.79"/>
<polygon fill="black" stroke="black" points="392.86,-216.94 396.36,-226.94 399.86,-216.94 392.86,-216.94"/>
</g>
<!-- UsersService -->
<g id="node11" class="node">
<title>UsersService</title>
<ellipse fill="#fdb462" stroke="black" cx="1242" cy="-169" rx="61.95" ry="18"/>
<text text-anchor="middle" x="1242" y="-164.8" font-family="Times,serif" font-size="14.00">UsersService</text>
</g>
<!-- UsersService&#45;&gt;AuthModule -->
<g id="edge13" class="edge">
<title>UsersService&#45;&gt;AuthModule</title>
<path fill="none" stroke="black" d="M1242,-187.06C1242,-198.44 1242,-211 1242,-211 1242,-211 394.95,-211 394.95,-211 394.95,-211 394.95,-216.81 394.95,-216.81"/>
<polygon fill="black" stroke="black" points="391.45,-216.81 394.95,-226.81 398.45,-216.81 391.45,-216.81"/>
</g>
<!-- UsersService&#45;&gt;UsersModule -->
<g id="edge23" class="edge">
<title>UsersService&#45;&gt;UsersModule</title>
<path fill="none" stroke="black" d="M1242,-150.93C1242,-141.54 1242,-132 1242,-132 1242,-132 360.24,-132 360.24,-132 360.24,-132 360.24,-140.93 360.24,-140.93"/>
<polygon fill="black" stroke="black" points="356.74,-140.93 360.24,-150.93 363.74,-140.93 356.74,-140.93"/>
</g>
<!-- CredentialService -->
<g id="node13" class="node">
<title>CredentialService</title>
<ellipse fill="#fdb462" stroke="black" cx="634" cy="-169" rx="80.43" ry="18"/>
<text text-anchor="middle" x="634" y="-164.8" font-family="Times,serif" font-size="14.00">CredentialService</text>
</g>
<!-- CredentialService&#45;&gt;CredentialModule -->
<g id="edge15" class="edge">
<title>CredentialService&#45;&gt;CredentialModule</title>
<path fill="none" stroke="black" d="M564.41,-160C499.67,-160 413.11,-160 413.11,-160 413.11,-160 413.11,-113 413.11,-113 413.11,-113 412.2,-113 412.2,-113"/>
<polygon fill="black" stroke="black" points="413.93,-109.5 403.93,-113 413.93,-116.5 413.93,-109.5"/>
</g>
<!-- ProfileService -->
<g id="node14" class="node">
<title>ProfileService</title>
<ellipse fill="#fdb462" stroke="black" cx="1792" cy="-169" rx="66.05" ry="18"/>
<text text-anchor="middle" x="1792" y="-164.8" font-family="Times,serif" font-size="14.00">ProfileService</text>
</g>
<!-- ProfileService&#45;&gt;ProfileModule -->
<g id="edge17" class="edge">
<title>ProfileService&#45;&gt;ProfileModule</title>
<path fill="none" stroke="black" d="M1792,-187.01C1792,-209.49 1792,-245 1792,-245 1792,-245 523.8,-245 523.8,-245"/>
<polygon fill="black" stroke="black" points="523.8,-241.5 513.8,-245 523.8,-248.5 523.8,-241.5"/>
</g>
<!-- RolesService -->
<g id="node16" class="node">
<title>RolesService</title>
<ellipse fill="#fdb462" stroke="black" cx="960" cy="-169" rx="61.97" ry="18"/>
<text text-anchor="middle" x="960" y="-164.8" font-family="Times,serif" font-size="14.00">RolesService</text>
</g>
<!-- RolesService&#45;&gt;RolesModule -->
<g id="edge19" class="edge">
<title>RolesService&#45;&gt;RolesModule</title>
<path fill="none" stroke="black" d="M960,-150.98C960,-133.63 960,-110 960,-110 960,-110 523.84,-110 523.84,-110"/>
<polygon fill="black" stroke="black" points="523.84,-106.5 513.84,-110 523.84,-113.5 523.84,-106.5"/>
</g>
</g>
</svg>
